<?xml version="1.0" standalone="no"?>
<!DOCTYPE svg PUBLIC "-//W3C//DTD SVG 1.1//EN" "http://www.w3.org/Graphics/SVG/1.1/DTD/svg11.dtd" >
<svg xmlns="http://www.w3.org/2000/svg">
<metadata>Generated by IcoMoon</metadata>
<defs>
<font id="icomoon" horiz-adv-x="1024">
<font-face units-per-em="1024" ascent="960" descent="-64" />
<missing-glyph horiz-adv-x="1024" />
<glyph unicode="&#x20;" d="" horiz-adv-x="512" />
<glyph unicode="&#xe600;" d="M346.058 777.356h436.109c11.004 0 19.932 8.91 19.932 19.915 0 11.021-8.929 19.932-19.932 19.932h-436.109c-10.987 0-19.915-8.91-19.915-19.932 0-11.004 8.929-19.915 19.915-19.915zM343.935 712.929h436.109c10.987 0 19.901 8.929 19.901 19.932s-8.91 19.932-19.901 19.932h-436.109c-11.004 0-19.915-8.929-19.915-19.932-0.010-10.987 8.897-19.932 19.915-19.932zM782.167 648.501c11.004 0 19.932 8.942 19.932 19.949s-8.929 19.915-19.932 19.915h-436.109c-10.987 0-19.915-8.91-19.915-19.915s8.929-19.949 19.915-19.949h436.109zM346.058 538.604h276.396c10.987 0 19.901 8.929 19.901 19.932s-8.91 19.932-19.901 19.932h-276.396c-11.004 0-19.915-8.929-19.915-19.932s8.91-19.932 19.915-19.932zM622.457 474.176c11.004 0 19.932 8.942 19.932 19.949s-8.929 19.915-19.932 19.915h-276.396c-10.987 0-19.915-8.91-19.915-19.915s8.929-19.949 19.915-19.949h276.396zM678.645 450.409c-7.778-7.793-7.765-20.412 0.010-28.205 7.765-7.778 20.379-7.778 28.172 0.010l115.583 99.597c7.765 7.778 7.778 20.379 0 28.172s-20.412 7.793-28.189 0.010l-115.583-99.597zM706.397 555.262c-8.691 6.787-21.191 5.239-27.999-3.417-6.772-8.658-5.239-21.178 3.436-27.949l112.838-102.711c8.658-6.772 21.162-5.254 27.949 3.402 6.787 8.691 5.273 21.212-3.385 27.981l-112.838 102.694zM852.073 930.426h-616.661c-16.098 0-29.195-13.114-29.195-29.224v-464.232l-84.677 59.286-73.882-105.524 158.561-111.028v-284.91c0-16.098 13.082-29.195 29.195-29.195h711.735c16.098 0 29.195 13.063 29.195 29.195v818.151l-124.27 117.485zM849.101 874.109l71.311-67.398h-71.311v67.398zM933.367 8.541h-684.219v241.082l197.084-137.989 73.882 105.524-270.966 189.736v480.571h557.042v-123.695h127.177v-755.228zM454.409 100.995l133.55-11.625-56.646 121.571zM665.132 330.769v-154.601c0-7.169 5.766-12.954 12.954-12.954h144.921c7.137 0 12.954 5.766 12.954 12.954v154.601c0 7.137-5.8 12.954-12.954 12.954h-144.921c-7.217 0-12.954-5.811-12.954-12.954zM690.988 317.834h119.066v-128.714h-119.066v128.714zM665.132 565.516v-154.601c0-7.169 5.766-12.954 12.954-12.954h144.921c7.137 0 12.954 5.766 12.954 12.954v154.601c0 7.137-5.8 12.954-12.954 12.954h-144.921c-7.217-0.010-12.954-5.811-12.954-12.954zM690.988 552.563h119.066v-128.714h-119.066v128.714z" />
<glyph unicode="&#xe601;" d="M668.461 569.395c31.016 71.655 15.767 152.691-44.477 213.050-53.409 53.478-128.495 71.33-194.831 53.353-34.996 69.263-106.653 116.948-189.418 116.948-117.061 0-212.289-95.23-212.289-212.289 0-90.84 58.080-166.855 138.471-196.986-0.843 6.611-1.716 13.153-2.322 20.004-0.647 7.697-0.565 15.037-0.535 22.393-57.347 28.384-97.383 86.409-97.383 154.575 0 95.978 78.083 174.057 174.057 174.057 66.463 0 124.305-37.472 153.619-92.389-17.4-8.778-33.689-20.313-48.134-34.759-76.014-75.875-73.805-200.348 4.43-278.699 60.288-60.398 147.937-75.413 219.645-45.252l16.836-11.409 31.678 4.374-29.427-38.809 36.234-36.291 67.067 4.557-12.87-50.964 31.141-32.284 55.057 2.434-10.198-42.538 39.497-39.582 42.932 18.286 23.027-18.455-11.238-25.461 2.686-1.954 134.53-7.99 10.269 48.67-328.056 333.401zM473.133 662.118c-24.151-24.109-63.917-23.406-88.788 1.675-24.967 24.926-25.218 64.283-1.096 88.352 8.074 8.032 17.865 13.113 28.174 15.712 1.434-8.947 2.378-18.047 2.378-27.403 0-11.561-1.463-22.701-3.743-33.634 1.463-7.457 5.892-14.825 17.682-17.090 10.661-2.053 16.767 4.121 20.325 11.142 2.487 12.817 3.953 26.022 3.953 39.567 0 8.397-0.621 16.641-1.575 24.771 7.697-3.165 14.938-7.89 21.24-14.221 24.967-25.025 25.644-64.649 1.448-88.871zM493.841 399.866c-67.083 0-130.479 26.516-178.474 74.579-46.798 46.812-73.144 108.523-74.2 173.676-0.352 20.719 2.757 40.765 7.37 60.288-41.215-50.076-57.208-119.833-35.463-187.884 25.826-81.277 96.946-134.798 174.478-140.861l9.677-17.795 30.171-10.661-43.846-21.085 15.516-48.767 61.697-26.668-34.759-39.455 12.913-42.889 50.021-23.083-28.6-33.156 17.035-53.299 46.603-3.417 11.999-26.994-21.676-17.386 1.463-2.912 115.907-68.855 31.467 38.486-130.958 421.288c-12.605-2.011-25.364-3.15-38.341-3.15z" />
<glyph unicode="&#xe602;" d="M512 952.697c-278.722 0-504.697-225.986-504.697-504.697 0-278.722 225.973-504.697 504.697-504.697 278.709 0 504.697 225.973 504.697 504.697 0 278.709-225.986 504.697-504.697 504.697zM701.263 321.817v63.091h-378.541v-63.091l-126.157 126.183 126.171 126.171v-63.091h378.526v63.091l126.157-126.171-126.157-126.183z" />
<glyph unicode="&#xe603;" d="M512 948.134c-275.78 0-500.134-224.363-500.134-500.134s224.351-500.134 500.134-500.134 500.134 224.363 500.134 500.134c0 275.78-224.351 500.134-500.134 500.134zM512 66.38c-210.412 0-381.62 171.196-381.62 381.62s171.206 381.62 381.62 381.62 381.62-171.196 381.62-381.62c0-210.425-171.206-381.62-381.62-381.62zM452.742 670.81h118.515v-445.638h-118.515v445.638z" />
<glyph unicode="&#xe604;" d="M429.818 490.763c0-31.49-25.528-57.018-57.018-57.018s-57.018 25.528-57.018 57.018c0 31.49 25.528 57.018 57.018 57.018s57.018-25.528 57.018-57.018zM151.88 426.623c0-27.551-22.335-49.886-49.886-49.886s-49.886 22.335-49.886 49.886c0 27.551 22.335 49.886 49.886 49.886s49.886-22.335 49.886-49.886zM693.501 426.623c0-27.551-22.335-49.886-49.886-49.886s-49.886 22.335-49.886 49.886c0 27.551 22.335 49.886 49.886 49.886s49.886-22.335 49.886-49.886zM444.072 405.237h-142.535c-23.614 0-42.763-19.16-42.763-42.763v-142.535c0-23.635 19.139-42.774 42.763-42.774l14.254-242.286h114.026l14.254 242.307c23.624 0 42.763 19.139 42.763 42.753v142.546c0 23.604-19.16 42.753-42.763 42.753zM700.634 348.218h-114.037c-20.659 0-42.753-22.095-42.753-42.753v-121.169c0-20.669 16.759-37.417 37.417-37.417l12.469-212.002h99.782l12.479 212.023c20.679 0 37.417 16.748 37.417 37.417v121.148c-0.010 20.659-22.125 42.753-42.774 42.753zM159.002 348.218h-114.026c-20.659 0-42.763-22.095-42.763-42.753v-121.169c0-20.669 16.748-37.417 37.417-37.417l12.469-212.002h99.793l12.469 212.023c20.669 0 37.417 16.748 37.417 37.417v121.148c-0.021 20.659-22.115 42.753-42.774 42.753zM301.537 601.332l286.763 286.774c7.758 7.738 12.572 18.431 12.572 30.264-0.010 23.614-19.17 42.753-42.774 42.753-11.812 0-22.516-4.793-30.264-12.562l-226.297-226.287-83.763 83.763c-7.748 7.758-18.452 12.562-30.264 12.562-23.604 0-42.763-19.139-42.763-42.763 0-11.833 4.803-22.526 12.551-30.264l144.238-144.238z" horiz-adv-x="746" />
<glyph unicode="&#xe605;" d="M551.651 459.675h69.865v-42.762h-69.865v42.762zM409.663 459.675h69.865v-42.762h-69.865v42.762zM752.234 902.347h-147.717c-12.81 0-25.107-5.085-34.163-14.141s-14.151-21.342-14.141-34.152c0-10.857-4.223-21.048-11.904-28.718-7.671-7.682-17.873-11.904-28.718-11.904-22.401 0-40.634 18.233-40.634 40.644 0 26.667-21.627 48.293-48.303 48.293h-147.717c-26.679 0-48.303-21.627-48.303-48.293v-394.4c0-7.486 0-35.080 0-42.762v-394.378c0-12.81 5.085-25.096 14.141-34.163 9.056-9.056 21.342-14.141 34.152-14.141h147.75c26.667 0 48.293 21.614 48.293 48.303 0 22.401 18.233 40.634 40.634 40.634s40.634-18.233 40.634-40.634c0-26.679 21.614-48.303 48.293-48.303h147.717c26.679 0 48.303 21.627 48.303 48.303v394.378c0 7.682 0 35.091 0 42.773v394.357c-0.010 26.679-21.637 48.303-48.316 48.303zM752.234 459.686h-58.594v-42.773h58.594v-394.378h-147.717c-0.010 49.112-39.805 88.927-88.917 88.927-49.112-0.010-88.917-39.815-88.927-88.927h-147.74v394.378h58.604v42.773l-58.604-0.010v394.378l147.717-0.010c0-49.112 39.805-88.917 88.927-88.927 49.112 0 88.927 39.815 88.927 88.927h147.717v-394.357zM515.59 719.571c-6.405 0-12.548-2.542-17.077-7.071l-93.095-93.107 34.152-34.152 51.872 51.872v-127.892h48.303v127.892l51.862-51.872 34.163 34.152-93.095 93.095c-4.539 4.539-10.682 7.081-17.087 7.081z" />
<glyph unicode="&#xe606;" d="M856.265 468.168l-54.818 3.689v-2.526c0-5.655 0-21.996 0-33.265l52.428-3.52 2.389 35.622zM987.009 829.843l-123.070 8.277c-10.665 0.718-21.204-2.833-29.258-9.873s-12.991-16.987-13.709-27.662c-0.603-9.037-4.694-17.293-11.511-23.244-2.431-2.135-5.169-3.732-8.023-5.063v-42.197c32.197 6.322 57.481 33.508 59.775 67.798l123.060-8.287-22.123-328.536-48.782 3.298-2.421-35.654 48.835-3.298-22.113-328.568-123.092 8.297c1.174 17.515-3.847 33.994-13.15 47.355v-85.323c3.319-1.152 6.776-2.040 10.443-2.294l123.081-8.266c22.23-1.511 41.457 15.306 42.947 37.525l22.135 328.578c0.412 6.385 1.966 29.248 2.389 35.633l22.123 328.557c1.511 22.208-15.306 41.446-37.535 42.947zM868.78 601.005l-67.323 77.047v-61.318l36.943-42.271zM225.915 472.116l2.414-35.635-58.182-3.942-2.414 35.635 58.182 3.942zM209.393 105.12l-123.081-8.297-22.113 328.568 48.835 3.298-2.421 35.654-48.782-3.298-22.123 328.536 123.060 8.297c2.548-37.969 33.254-67.291 70.345-69.119v40.452c-6.828 0.75-13.298 3.498-18.593 8.139-6.818 5.951-10.909 14.207-11.511 23.244-0.718 10.676-5.655 20.622-13.709 27.662s-18.593 10.591-29.258 9.873l-123.049-8.287c-22.23-1.501-39.036-20.739-37.557-42.947l22.123-328.557c0.423-6.385 1.977-29.248 2.389-35.633l22.135-328.578c1.501-22.218 20.729-39.026 42.947-37.525l123.081 8.266c7.907 0.539 15.063 3.383 21.014 7.748v92.025c-15.918-14.714-25.294-36.203-23.731-59.521zM155.22 601.005l30.379-26.542 40.294 46.108 7.188-106.549h0.032v174.146c-2.072-1.131-3.974-2.568-5.56-4.387l-72.332-82.776zM626.498 469.32h-69.679v-42.662h69.679zM460.226 426.658h24.681v42.662h-69.669v-42.662zM801.458 426.658c0 2.009 0 5.402 0 9.397 0 11.268 0 27.61 0 33.265v393.269c-0.021 26.616-21.585 48.18-48.18 48.18h-147.319c-12.769 0-25.030-5.074-34.069-14.111-9.027-9.027-14.111-21.278-14.101-34.057 0-10.824-4.207-20.982-11.871-28.635-7.653-7.663-17.822-11.871-28.635-11.871-22.335 0-40.526 18.181-40.526 40.526 0 26.605-21.553 48.169-48.169 48.169h-147.297c-26.616 0-48.18-21.564-48.18-48.169v-393.301c0-7.462 0-34.987 0-42.651v-393.279c0-12.769 5.063-25.020 14.101-34.069 9.027-9.027 21.288-14.101 34.069-14.101h147.329c26.595 0 48.169 21.553 48.169 48.169 0 22.345 18.181 40.516 40.516 40.516s40.526-18.171 40.526-40.516c0-26.595 21.553-48.169 48.158-48.169h147.308c26.605 0 48.18 21.574 48.18 48.169v393.269zM605.959 33.379c0 16.965-4.841 32.778-13.108 46.235-15.031 24.449-41.541 41.097-72.090 42.281-1.152 0.042-2.294 0.18-3.456 0.18-31.701-0.010-59.426-16.701-75.102-41.71-8.551-13.636-13.562-29.702-13.572-46.975h-147.339v393.269h58.443v42.662l-58.443-0.010v393.29l147.308-0.010c0-2.146 0.18-4.238 0.317-6.353 2.241-31.594 20.971-58.581 47.704-72.407 12.188-6.31 25.992-9.915 40.664-9.925 10.465 0 20.475 1.913 29.787 5.243 17.336 6.183 32.155 17.558 42.598 32.324 1.036 1.459 1.987 2.959 2.939 4.492 7.24 11.67 11.849 25.115 12.991 39.576 0.18 2.336 0.349 4.662 0.349 7.050h147.308v-393.258h-58.422v-42.662h58.443v-393.279h-147.319zM630.737 628.594l-92.839 92.839c-4.535 4.524-10.645 7.061-17.029 7.061s-12.515-2.537-17.018-7.050l-92.839-92.85 34.057-34.057 51.732 51.732v-127.552h48.169v127.552l51.72-51.732 34.047 34.057z" />
<glyph unicode="&#xe607;" d="M507.306 234.7h253.996v-118.688h-253.996v118.688zM507.306 471.916h253.996v-177.889h-253.996v177.889zM179.332 636.871h254.133v-520.858h-254.133v520.858zM992.286 773.631h-167.765v156.838c0 20.557-17.886 22.294-39.992 22.294-22.057 0-39.96-1.735-39.96-22.294v-156.838h-167.697c-22.174 0-24.149-16.867-24.149-37.287 0-20.698 1.975-37.439 24.149-37.439h167.697v-156.822c0-20.439 17.901-22.294 39.96-22.294 22.105 0 39.992 1.841 39.992 22.294v156.822h167.765c21.988 0 23.943 16.747 23.943 37.439 0 20.439-1.957 37.287-23.943 37.287zM854.046 360.5v-335.087h-767.245v702.44h362.094v80.633l-425.198-0.373c-8.833 0-15.928-8.49-15.928-18.958l0.613-826.024c0-10.466 7.287-18.84 16.234-18.84l892.161 0.867c8.95 0 16.15 8.511 16.15 18.958l-0.357 396.402h-78.52z" />
<glyph unicode="&#xe608;" d="M633.537 567.071c0-73.148-59.3-132.454-132.454-132.454s-132.454 59.3-132.454 132.454c0 73.148 59.3 132.454 132.454 132.454s132.454-59.3 132.454-132.454zM887.679 269.123c-31.874 9.977-65.83-7.74-75.835-39.599l-11.338-36.138-55.529 153.916c-8.637 24.010-31.384 39.98-56.893 39.98h-349.27c-20.849 0-40.227-10.738-51.291-28.426l-83.749-133.843-13.942 109.545c-4.224 33.127-34.572 56.661-67.657 52.366-33.155-4.224-56.577-34.503-52.383-67.645l35.35-262.713c3.23-25.387 22.075-45.991 47.039-51.443 24.978-5.45 50.717 5.3 64.277 26.981l93.164 149.897v-198.46h372.966v180.215l65-180.312c8.626-24.066 31.437-39.98 56.878-39.98 0.45 0 0.858 0 1.309 0 25.945 0.558 48.676 17.62 56.456 42.366l65.043 207.467c10.029 31.847-7.701 65.846-39.599 75.819zM956.575 501.048c0-33.032-26.778-59.809-59.809-59.809s-59.809 26.778-59.809 59.809c0 33.032 26.778 59.809 59.809 59.809s59.809-26.778 59.809-59.809zM605.033 952.53l29.317-100.084-100.084-29.317-29.317 100.084 100.084 29.317zM220.604 704.906l-153.233-35.702 107.555-114.834z" />
<glyph unicode="&#xe609;" d="M682.809 280.915l-71.786 157.869-0.013-0.16c0 0.027 0 0.080 0 0.16 0 163.188-132.309 295.51-295.524 295.51s-295.537-132.322-295.537-295.51c0-93.304 43.327-176.367 110.818-230.52v-249.736h313.996v110.831l36.944 0.027c61.201 0 110.818 49.591 110.818 110.805v73.861l73.874 0.027c10.227 0 18.485 8.258 18.485 18.472 0 2.992-0.864 5.718-2.168 8.205l0.093 0.16zM518.649 364.883c-20.4 0-36.944 16.544-36.944 36.93s16.544 36.93 36.944 36.93 36.944-16.544 36.944-36.93-16.544-36.93-36.944-36.93zM1239 937.472h-443.299c-61.227 0-110.818-49.604-110.818-110.818 0 0 0 0 0-0.013v-258.567c0-61.214 49.591-110.805 110.818-110.805l55.416-0.013-55.416-147.775 240.135 147.775 203.164 0.013c61.227 0 110.818 49.591 110.818 110.805v258.553c0 0.013 0 0.013 0 0.013 0 61.227-49.591 110.831-110.818 110.831zM1154.287 612.638l-52.237-52.237-84.699 84.713-84.699-84.699-52.237 52.237 84.686 84.699-84.686 84.713 52.237 52.237 84.699-84.699 84.699 84.686 52.237-52.237-84.699-84.713 84.699-84.699z" horiz-adv-x="1370" />
<glyph unicode="&#xe60a;" d="M144.921 640.718h91.765v-614.857h-91.765v614.857zM557.876 870.135h-91.765v-605.665h-91.765v-91.776h275.292v91.776h-91.765zM466.111 145.167h91.765v-119.305h-91.765v119.305zM787.303 383.752h91.765v-357.9h-91.765v357.9zM879.068 503.057v367.079h-91.765v-367.079h-91.776v-91.765h275.318v91.765zM236.682 870.135h-91.765v-110.124h-91.765v-91.765h275.303v91.765h-91.776z" />
<glyph unicode="&#xe60b;" d="M33.63 472.279h956.74v309.011h-956.74v-309.011zM84.072 730.818h855.799v-208.069h-855.799v208.069zM33.63 114.709h293.51v326.51h-293.51v-326.51zM84.072 390.808h192.652v-225.597h-192.652v225.597zM366.103 291.524h293.592v149.667h-293.592v-149.667zM416.574 390.808h192.625v-48.837h-192.625v48.837zM696.831 291.524h293.538v149.667h-293.538v-149.667zM747.332 390.808h192.54v-48.837h-192.54v48.837zM366.103 117.215h293.592v143.816h-293.592v-143.816zM416.574 210.616h192.625v-42.957h-192.625v42.957zM696.831 117.215h293.538v143.816h-293.538v-143.816zM747.332 210.616h192.54v-42.957h-192.54v42.957zM119.208 556.369h140.832v140.803h-140.832v-140.803zM169.679 646.73h39.921v-39.976h-39.921v39.976z" />
<glyph unicode="&#xe60c;" d="M424.477 200.531c-26.051 0-48.965-12.505-63.567-31.27-14.589 18.764-37.515 31.27-63.567 31.27-43.761 0-79.197-35.434-79.197-79.178 0-43.761 35.434-79.207 79.197-79.207 26.051 0 48.965 12.519 63.567 31.27 14.589-18.751 37.515-31.27 63.567-31.27 43.761 0 79.178 35.448 79.178 79.207s-35.419 79.178-79.178 79.178zM298.402 74.453c-26.051 0-46.882 20.831-46.882 46.895 0 26.051 20.831 46.882 46.882 46.882s46.882-20.831 46.882-46.882c0-26.051-20.831-46.895-46.882-46.895zM424.477 74.453c-26.051 0-46.882 20.831-46.882 46.895 0 26.051 20.831 46.882 46.882 46.882s46.882-20.831 46.882-46.882c0-26.051-20.846-46.895-46.882-46.895zM563.046 200.531c-9.369 0-16.682-7.301-16.682-16.682 0-9.369 7.315-16.669 16.682-16.669h226.105c9.369 0 16.682 7.301 16.682 16.669 0 9.381-7.315 16.682-16.682 16.682h-226.105zM789.15 138.018h-226.105c-9.369 0-16.682-7.301-16.682-16.669 0-9.381 7.315-16.682 16.682-16.682h226.105c9.369 0 16.682 7.301 16.682 16.682 0 9.369-8.327 16.669-16.682 16.669zM789.15 74.453h-226.105c-9.369 0-16.682-7.301-16.682-16.682 0-9.369 7.315-15.628 16.682-15.628h226.105c9.369 0 16.682 7.315 16.682 16.682 0 9.381-8.327 15.628-16.682 15.628zM896.49 664.201l-274.041 274.041c-4.178 4.164-9.369 5.205-14.589 4.164l-1.043 1.043h-424.088c-33.338 0-60.428-27.093-60.428-60.428v-870.034c0-33.338 27.093-60.428 60.428-60.428h658.504c33.351 0 60.443 27.093 60.443 60.428v635.589l-1.043 1.043c1.043 5.205 0 10.425-4.151 14.589zM639.117 874.676l192.75-192.768h-164.619c-14.589 0-27.093 12.519-27.093 27.106v165.659h-1.043zM841.238-14.124h-658.504c-14.589 0-27.093 12.519-27.093 27.106v870.034c0 14.589 12.505 27.093 27.093 27.093h420.936l3.138-3.138v-197.957c0-33.351 27.093-60.443 60.443-60.443h199.010l3.108-3.124v-632.466c-1.043-14.589-13.545-27.106-28.133-27.106z" />
<glyph unicode="&#xe60d;" d="M893.93 419.249l-369.522-300.322c-4-3.274-8.859-4.871-13.741-4.871-4.978 0-9.901 1.703-13.902 5.018l-365.813 302.883c-1.625-5.018-2.747-10.243-2.747-15.789v-397.493c0-6.034 1.213-11.749 3.141-17.138l203.798 198.98c8.673 8.435 22.495 8.262 30.97-0.343 8.409-8.66 8.211-22.456-0.396-30.93l-203.573-198.728c5.491-1.992 11.299-3.286 17.504-3.286h664.764c6.865 0 13.438 1.427 19.47 3.908l-204.509 199.64c-8.604 8.435-8.792 22.258-0.355 30.878 8.435 8.647 22.231 8.831 30.917 0.396l203.322-198.528c1.492 4.793 2.521 9.834 2.521 15.129v397.51c0 4.541-0.738 8.859-1.849 13.094zM295.663 691.571l58.943 101.819-109.409 63.298c-17.293-33.186-22.125-69.738-16.014-104.262 6.034-34.152 34.415-46.44 66.483-60.857zM865.8 452.698c-6.469 3.064-13.715 4.884-21.4 4.884h-316.559c1.729 19.326 5.926 31.867 10.654 39.749 9.056 14.997 21.426 19.116 41.518 24.223 18.773 4.858 45.609 8.198 63.997 33.358 8.462 11.933 12.937 25.558 12.896 38.783-0.753 33.292-23.406 57.45-47.906 77.107-12.924 10.1-27.021 18.942-40.95 26.626 56.909 114.241-43.139 142.901-118.242 186.359-42.916 24.75-69.86 66.931-113.211 51.801-28.487-9.848-54.231-27.59-73.951-52.169l121.687-70.373c3.722-2.14 6.348-5.597 7.432-9.665 1.133-4.038 0.554-8.487-1.65-12.158l-65.729-113.58c1.638-0.885 3.196-1.783 4.698-2.628 73.965-42.786 144.709-118.505 218.305-12.449 12.791-6.943 25.651-15.023 36.579-23.656 21.267-16.264 33.162-34.376 32.408-45.214-0.106-4.635-1.213-9.177-5.518-15.418-4.197-5.876-10.232-9.254-21.45-12.619-16.371-5.28-41.714-6.904-65.226-24.448-20.661-15.643-34.033-42.403-36.989-83.629h-307.557c-6.652 0-12.949-1.373-18.758-3.671l349.866-289.707 355.053 288.494z" />
<glyph unicode="&#xe60e;" d="M899.561 769.998c0 4.639-1.849 9.115-5.175 12.441l-47.937 47.937c-6.93 6.836-17.975 6.836-24.811 0l-28.125-28.043-8.418 8.418c-4.906 4.999-11.65 7.708-18.58 7.708-7.023 0-13.672-2.709-18.58-7.708l-104.734-104.721h-327.871v94.037c0 14.545-11.742 26.299-26.299 26.299-14.545 0-26.289-11.755-26.289-26.299v-94.037h-94.023c-14.545 0-26.299-11.755-26.299-26.299s11.742-26.289 26.299-26.289h94.037v-327.859l-46.087-46.193-1.755-1.662c-2.547-2.547-4.557-5.523-5.871-8.673l-82.038-170.888c-4.826-10.080-2.72-22.079 5.162-29.974 4.999-5.092 11.742-7.698 18.58-7.698 3.861 0 7.708 0.86 11.394 2.534l172.388 82.735c2.638 1.314 5.081 2.976 7.186 5.15l47.937 47.937h327.694v-94.037c0-14.545 11.835-26.299 26.289-26.299 14.557 0 26.299 11.755 26.299 26.299v94.037h94.037c14.557 0 26.299 11.755 26.299 26.299 0 14.557-11.742 26.299-26.299 26.299h-94.023v327.673l104.814 104.814c10.267 10.254 10.267 26.903 0 37.17l-8.418 8.418 28.043 28.125c3.326 3.233 5.175 7.708 5.175 12.348zM315.349 653.442h275.283l-275.283-275.271v275.271zM206.848 142.859l38.298 79.839 41.634-41.53-79.933-38.31zM717.361 251.441l-275.121 0.010 275.121 275.085v-275.098zM725.057 608.575l-362.995-363.087c-0.604-0.617-1.231-1.139-1.837-1.755l-43.204-43.286-52.494 52.482 502.001 502.094 52.507-52.494-93.978-93.953zM844.079 756.941l-23.137 23.23 13.057 13.057 23.23-23.23-13.15-13.057z" />
<glyph unicode="&#xe60f;" d="M923.587-29.206h-535.067c-25.237 0-45.723 20.473-45.723 45.723 0 25.237 20.488 45.711 45.723 45.711h486.439c-18.398 144.547-122.78 266.967-266.401 306.156-18.34 4.994-31.669 20.852-33.498 39.74-1.815 18.935 8.248 36.999 25.324 45.389 69.567 34.295 112.808 103.020 112.808 179.366 0 110.76-90.285 200.858-201.19 200.858-110.948 0-201.22-90.082-201.22-200.858 0-76.347 43.241-145.056 112.821-179.366 17.047-8.392 27.124-26.471 25.308-45.389-1.815-18.903-15.16-34.763-33.498-39.74-158.546-43.257-269.275-187.962-269.275-351.867 0-25.248-20.473-45.723-45.723-45.723s-45.723 20.473-45.723 45.723c0 174.678 100.524 331.914 252.838 408.073-55.774 53.944-88.183 128.197-88.183 208.292 0 161.204 131.306 292.322 292.684 292.322 161.362 0 292.667-131.116 292.667-292.322 0-80.095-32.439-154.349-88.196-208.292 152.315-76.16 252.854-233.399 252.854-408.073-0.031-25.248-20.531-45.723-45.765-45.723z" />
<glyph unicode="&#xe610;" d="M678.508 555.708c0-17.775 9.983-52.175-43.317-83.275 4.437-8.889 9.996-16.652 16.652-23.323 21.088-25.541 51.068-43.302 84.389-43.302 45.521 0 88.823 31.087 112.115 67.735-49.945 31.087-39.96 64.389-39.96 81.046 65.512 0 74.386 25.541 136.562 25.541-127.689 48.847 1.112 299.773-202.074 299.773-203.17 0-74.386-250.922-202.046-299.773 64.406 2.218 72.17-24.416 137.684-24.416zM951.629 439.111c-35.523 7.78-62.172 16.652-83.275 25.541-27.758-43.302-77.73-79.934-132.105-79.934-42.194 0-78.839 22.197-104.364 54.393-6.673 7.78-12.217 16.652-16.652 25.541-9.996-4.437-22.212-8.889-35.538-13.324-13.324-4.452-27.758-7.78-44.41-11.108 0 0-61.049-37.757-61.049-122.112 0-85.494 12.217-121.032 12.217-319.764h511.813c0 199.842 12.217 235.38 12.217 319.764 2.218 83.262-58.845 121.004-58.845 121.004zM438.689 315.895c0 102.132 73.279 148.777 76.607 150.995l5.546 3.329h1.112c-38.849 14.433-77.716 28.869-88.805 37.757l-7.78 8.889c0 0-42.194-61.064-68.826-204.293l-22.197 167.661 15.546 24.429c71.063 16.638 62.172 42.177 62.172 42.177 0 14.433 0 41.084 0 41.084 14.433 22.197 21.088 55.503 21.088 55.503 5.562 6.654 14.433 1.112 16.652 19.98 3.329 18.887 2.218 39.974 4.437 58.858 1.112 18.868-11.108 14.433-11.108 14.433s3.343 32.18-11.108 91.041c-5.546 22.197-9.996 38.849-27.758 49.955-24.429 15.546-38.867 22.197-83.275 22.197-43.302 0-58.845-6.654-83.275-22.197-17.762-12.217-22.197-27.758-27.758-49.955-14.433-58.858-11.108-91.041-11.108-91.041s-13.324 4.437-11.108-14.433c2.218-17.775 2.218-39.974 4.437-58.858 2.218-18.868 9.996-13.324 16.652-19.98 0 0 6.654-33.304 21.088-55.503 0 0 0-26.65 0-41.084 0 0-8.873-25.541 62.172-42.177l15.546-24.429-22.197-167.661c-26.65 142.107-68.843 204.293-68.843 204.293l-7.718-8.904c-18.868-14.433-112.129-44.41-157.664-62.172 0 0-37.757-22.197-37.757-449.657h440.783c0 49.955-3.343 111.021-6.673 169.865-2.205 55.518-5.53 108.801-8.873 149.901z" />
<glyph unicode="&#xe611;" d="M80.043 801.159h92.268v-18.69h-92.268v18.69zM80.043 770.401h350.566v-18.706h-350.566v18.706zM80.043 706.507h645.813v-65.35h-645.813v65.35zM80.043 594.109h485.882v-18.722h-485.882v18.722zM80.043 565.405h629.385v-18.735h-629.385v18.735zM80.043 472.657h180.402v-149.644h-180.402v149.644zM80.043 298.88h147.61v-18.706h-147.61v18.706zM80.043 255.83h109.326v-18.722h-109.326v18.722zM300.093 472.657h180.416v-149.644h-180.416v149.644zM300.093 298.88h147.591v-18.706h-147.591v18.706zM300.093 255.83h109.326v-18.722h-109.326v18.722zM520.107 280.187h5.319c1.903 6.355 4.182 12.559 6.536 18.706h-11.855v-18.706zM911.415 112.347l-38.521-38.507v0.043c-1.262-1.318-1.262-3.435 0-4.736 1.351-1.318 3.479-1.318 4.765 0l38.49 38.49c1.287 1.287 1.287 3.402 0 4.709-1.331 1.287-3.388 1.287-4.736 0zM782.001 432.892c-126.787 0-229.625-102.777-229.625-229.595 0-126.833 102.836-229.609 229.625-229.609s229.625 102.777 229.625 229.609c0 126.817-102.836 229.595-229.625 229.595zM819.355 330.49c16.712 16.775 40.634 22.197 61.977 16.277l-32.807-32.796c-8.994-8.948-8.994-23.396 0-32.315l11.826-11.872c8.934-8.934 23.396-8.934 32.286 0l32.807 32.796c5.935-21.361 0.524-45.176-16.277-61.948-16.775-16.788-40.634-22.212-62.010-16.322l-14.105-14.136c-0.21 0.929-0.315 1.903-0.315 2.696l-0.121 5.802-4.736 3.329c-2.637 1.86-5.591 3.177-8.574 4.151 2.338 4.092 2.024 9.427-1.498 12.949-4.213 4.167-10.942 4.167-15.138 0l-5.411-5.411-14.493 14.524 20.233 20.295c-5.876 21.331-0.481 45.147 16.352 61.977zM638.234 342.733c0.824 0.898 1.409 1.422 1.724 1.769 0 0 0 0 0.764 0.764 0.375 0.375 0.959 0.929 1.814 1.754 2.487 2.549 7.287 2.278 7.287 2.278s22.693-12.634 28.899-17.295c4.423-4.916 15.514-27.113 15.514-27.113l69.935-69.935c0 0 2.759 3.299 5.066 5.080 2.487 0.975 5.276 0.255 5.276 0.255l18.182-18.21-15.633-15.633h-0.059l-13.849-13.878-18.182 18.166c0 0-0.705 2.772 0.269 5.309 1.785 2.261 5.066 5.022 5.066 5.022l-69.907 69.923c0 0-22.242 11.075-27.162 15.546-4.677 6.176-17.295 28.899-17.295 28.899s-0.195 4.783 2.293 7.313zM744.591 76.091c-16.742-16.775-40.606-22.212-61.948-16.307l32.796 32.84c8.994 8.904 8.994 23.382 0 32.269l-11.826 11.872c-8.934 8.934-23.396 8.934-32.315 0l-32.796-32.807c-5.935 21.373-0.495 45.206 16.277 61.977 16.801 16.801 40.634 22.197 61.948 16.277l20.311 20.311 14.556-14.524-4.423-4.391c-4.242-4.213-4.242-11.001 0-15.168 3.193-3.193 7.87-3.927 11.765-2.205 1.050-3.103 2.398-6.082 4.301-8.889l3.435-4.765 5.769-0.088c0.824 0 1.724-0.148 2.696-0.301l-14.164-14.136c5.829-21.373 0.389-45.19-16.382-61.961zM921.261 80.856l-16.833-16.908c-8.965-8.948-23.396-8.948-32.345 0l-30.936 30.982c-0.059 12.59-8.786 29.978-23.923 45.1-14.899 14.913-32.092 23.652-44.652 23.848-6.204 8.965-5.352 21.331 2.637 29.257l16.921 16.937c7.927 7.958 20.295 8.813 29.181 2.561 0.269-12.559 8.994-29.676 23.923-44.575 15.108-15.138 32.466-23.923 45.087-23.923l30.936-30.996c8.979-8.934 8.979-23.382 0-32.286zM80.043 167.685h410.701v-18.722h-410.701v18.722zM700.526 458.464v14.179h-180.416v-149.66h22.483c32.060 64.030 88.823 113.447 157.934 135.48zM28.786 851.221h759.918v-380.814h16.427v451.919h-792.745v-847.406h530.414v16.413h-514.018z" />
<glyph unicode="&#xe612;" d="M901.815 659.745c20.777 23.181 33.452 53.92 33.452 87.65 0 71.59-58.259 129.807-129.807 129.807h-152.374c-11.939 0-21.701-9.727-21.701-21.701v-166.979c-33.525 18.917-72.046 29.453-112.694 29.453-28.441 0-56.485-5.289-83.18-15.709-17.658-6.901-33.98-16.028-49.073-26.727l-107.27 201.076c-7.561 14.153-30.785 14.153-38.33 0l-236.42-443.196c-5.597-10.595-1.611-23.753 8.983-29.379 3.208-1.743 6.696-2.607 10.152-2.607 7.808 0 15.282 4.149 19.151 11.502l217.252 407.355 92.824-173.955c-17.861-18.901-32.704-40.751-43.414-65.262-1.116-2.564-1.934-5.187-2.961-7.781h-152.59c-11.927 0-21.701-9.727-21.701-21.701 0-11.927 9.775-21.701 21.701-21.701h140.165c-7.501-41.188-3.752-83.71 11.869-123.681 34.551-88.355 118.084-145.397 212.828-145.397 21.303 0 42.213 2.945 62.523 8.791l121.646-311.085c3.297-8.455 11.547-13.714 20.191-13.714 2.696 0 5.333 0.468 7.851 1.479 11.209 4.396 16.718 16.984 12.34 28.133l-121.658 311.030c49.438 24.881 86.437 65.995 107.065 114.202h163.682c71.547 0 129.79 58.214 129.79 129.85-0.011 68.546-53.056 124.941-120.296 130.246zM586.217 316.98c-21.671-8.469-44.355-12.762-67.371-12.762-76.896 0-144.486 46.243-172.533 117.79-17.978 46.025-17.027 96.34 2.812 141.617 19.84 45.32 56.046 80.193 102.201 98.157 21.627 8.469 44.369 12.762 67.341 12.762 76.882 0 144.474-46.141 172.605-117.79 37.056-95.021-10.006-202.705-105.060-239.773zM892.305 443.064h-150.056c8.777 41.935 6.023 86.744-10.681 129.541-12.863 32.939-32.558 61.498-57.086 84.398 0.147 1.026 0.307 2.068 0.307 3.136v173.646h130.67c47.635 0 86.391-38.77 86.391-87.269 0-47.576-38.726-86.391-86.391-86.391h-11.676c-11.97 0-21.687-9.727-21.687-21.701 0-11.939 9.714-21.715 21.687-21.715h97.643c48.192 0 87.256-39.239 87.256-87.256 0.011-47.576-38.711-86.391-86.375-86.391z" />
<glyph unicode="&#xe613;" d="M980.889 848.934c0 37.515-30.441 67.939-67.97 67.939h-801.853c-37.515 0-67.954-30.424-67.954-67.939v-801.868c0-37.529 30.424-67.939 67.954-67.939h801.853c37.529 0 67.97 30.412 67.97 67.939v801.868zM797.592 208.35h-547.028c-14.966 0-20.157 13.336-11.537 25.574l158.108 226.259c8.609 12.211 24.279 14.392 34.828 3.786l31.944-31.707c10.55-10.605 26.966-9.65 36.475 1.9l76.722 93.178c9.509 11.521 24.237 10.944 32.745-1.351l199.492-291.936c8.468-12.321 3.193-25.698-11.745-25.698zM759.343 483.434c-36.122 0-65.38 29.287-65.38 65.396 0 36.138 29.287 65.409 65.38 65.409 36.122 0 65.409-29.287 65.409-65.409 0-36.109-29.287-65.396-65.409-65.396z" />
<glyph unicode="&#xe614;" d="M893.93 419.249l-369.522-300.322c-4-3.274-8.859-4.871-13.741-4.871-4.978 0-9.901 1.703-13.902 5.018l-365.813 302.883c-1.625-5.018-2.747-10.243-2.747-15.789v-397.493c0-6.034 1.213-11.749 3.141-17.138l203.798 198.98c8.673 8.435 22.495 8.262 30.97-0.343 8.409-8.66 8.211-22.456-0.396-30.93l-203.573-198.728c5.491-1.992 11.299-3.286 17.504-3.286h664.764c6.865 0 13.438 1.427 19.47 3.908l-204.509 199.64c-8.604 8.435-8.792 22.258-0.355 30.878 8.435 8.647 22.231 8.831 30.917 0.396l203.322-198.528c1.492 4.793 2.521 9.834 2.521 15.129v397.51c0 4.541-0.738 8.859-1.849 13.094zM295.663 691.571l58.943 101.819-109.409 63.298c-17.293-33.186-22.125-69.738-16.014-104.262 6.034-34.152 34.415-46.44 66.483-60.857zM865.8 452.698c-6.469 3.064-13.715 4.884-21.4 4.884h-316.559c1.729 19.326 5.926 31.867 10.654 39.749 9.056 14.997 21.426 19.116 41.518 24.223 18.773 4.858 45.609 8.198 63.997 33.358 8.462 11.933 12.937 25.558 12.896 38.783-0.753 33.292-23.406 57.45-47.906 77.107-12.924 10.1-27.021 18.942-40.95 26.626 56.909 114.241-43.139 142.901-118.242 186.359-42.916 24.75-69.86 66.931-113.211 51.801-28.487-9.848-54.231-27.59-73.951-52.169l121.687-70.373c3.722-2.14 6.348-5.597 7.432-9.665 1.133-4.038 0.554-8.487-1.65-12.158l-65.729-113.58c1.638-0.885 3.196-1.783 4.698-2.628 73.965-42.786 144.709-118.505 218.305-12.449 12.791-6.943 25.651-15.023 36.579-23.656 21.267-16.264 33.162-34.376 32.408-45.214-0.106-4.635-1.213-9.177-5.518-15.418-4.197-5.876-10.232-9.254-21.45-12.619-16.371-5.28-41.714-6.904-65.226-24.448-20.661-15.643-34.033-42.403-36.989-83.629h-307.557c-6.652 0-12.949-1.373-18.758-3.671l349.866-289.707 355.053 288.494z" />
<glyph unicode="&#xe615;" d="M566.625 7.561c-40.274 23.495-73.836 43.633-77.193 43.633s-26.851-13.423-60.412-33.565c-30.204-16.78-57.054-33.565-60.412-33.565-6.714 0-204.73 120.824-218.153 130.893-3.355 6.714-3.355 13.423-3.355 140.96v130.893l6.714 6.714c6.714 6.714 33.565 20.138 60.412 36.92l46.987 30.204v97.327l3.355 93.973 6.714 10.068c6.714 3.355 73.836 43.633 147.67 87.261l137.604 83.903 36.92 53.7c36.92 53.7 46.987 63.767 60.412 57.054 3.355 0 23.495-26.851 43.633-57.054l36.92-53.7 147.67-87.261 144.315-87.261v-100.687c3.355-93.973 3.355-97.327 10.068-100.687 10.068-3.355 43.633-36.92 53.7-53.7 6.714-13.423 6.714-16.78 6.714-151.029 0-147.67 0-140.96-23.495-167.811-46.987-53.7-164.453-77.193-251.713-46.987l-26.851 10.068-73.836-43.633c-36.92-23.495-73.836-40.274-73.836-40.274-3.355 0-40.274 20.138-80.551 43.633zM704.229 41.124c26.851 16.78 50.341 30.204 50.341 30.204s-3.355 10.068-10.068 16.78c-6.714 10.068-16.78 23.495-16.78 30.204-3.355 10.068-3.355 53.7-3.355 137.604 0 144.315-3.355 144.315 30.204 174.519 33.565 33.565 77.193 50.341 140.96 53.7 33.565 3.355 63.767 0 87.261-6.714l10.068-3.355-3.355 80.551v80.551l-87.261 53.7c-104.041 60.412-107.397 63.767-104.041 57.054 0 0 20.138-26.851 40.274-53.7 43.633-60.412 43.633-63.767 36.92-73.836-3.355-6.714-218.153-144.315-228.221-144.315s-224.868 134.247-231.58 144.315c-6.714 6.714 0 20.138 43.633 77.193 20.138 30.204 36.92 57.054 36.92 53.7-3.355 0-46.987-26.851-97.327-57.054l-93.973-57.054v-73.836c0-40.274 0-70.478 0-70.478 3.355 0 16.78 6.714 30.204 16.78 13.423 6.714 30.204 13.423 33.565 13.423 6.714 0 211.438-124.18 218.153-130.893 3.355-3.355 3.355-43.633 3.355-137.604v-134.247l-26.851-16.78c-13.423-10.068-26.851-16.78-30.204-20.138-6.714-3.355 3.355-10.068 53.7-40.274 30.204-20.138 60.412-33.565 60.412-33.565 3.355 0 30.204 16.78 57.054 33.565zM351.828 135.099v93.973l-83.903 50.341c-43.633 26.851-80.551 46.987-83.903 46.987 0 0 0-33.565 0-93.973v-93.973l80.551-50.341c46.987-26.851 83.903-50.341 83.903-50.341s3.355 43.633 3.355 97.327zM486.077 98.182l63.767 40.274v93.973c0 53.7 0 93.973 0 93.973s-36.92-20.138-80.551-46.987l-80.551-50.341v-191.301l13.423 10.068c10.068 6.714 46.987 26.851 83.903 50.341zM972.723 71.329c43.633 10.068 77.193 36.92 83.903 60.412 3.355 13.423 6.714 154.383 3.355 154.383 0 0-10.068-3.355-20.138-10.068s-33.565-16.78-46.987-20.138c-23.495-10.068-30.204-10.068-80.551-10.068-53.7 0-60.412 0-83.903 10.068-13.423 3.355-36.92 13.423-46.987 20.138l-16.78 10.068v-77.193c0-80.551 0-80.551 6.714-93.973 13.423-20.138 53.7-40.274 97.327-46.987 23.495-6.714 83.903-3.355 104.041 3.355zM459.228 319.692c43.633 26.851 83.903 50.341 83.903 50.341 0 3.355-171.165 107.397-174.519 107.397-6.714 0-174.519-104.041-171.165-107.397 0-3.355 167.811-104.041 171.165-104.041s43.633 23.495 90.618 53.7zM972.723 289.481c43.633 10.068 77.193 36.92 83.903 63.767 13.423 43.633-40.274 83.903-117.465 90.618-127.534 13.423-221.51-63.767-154.383-120.824 40.274-36.92 120.824-50.341 187.948-33.565zM757.929 584.828c36.92 23.495 67.124 43.633 70.478 46.987 3.355 0-157.739 228.221-161.096 228.221 0 0 0-73.836 0-164.453v-167.811l10.068 10.068c6.714 3.355 43.633 26.851 80.551 46.987zM627.035 698.94c0 140.96-3.355 164.453-6.714 157.739-3.355-3.355-40.274-57.054-80.551-114.112-57.054-77.193-77.193-110.756-73.836-114.112 0 0 36.92-23.495 80.551-46.987 40.274-26.851 73.836-46.987 77.193-46.987 0 0 3.355 73.836 3.355 164.453z" horiz-adv-x="1224" />
<glyph unicode="&#xe616;" d="M423.211 36.5c0 35.006 2.5 45.007 12.502 60.009 15.002 15.002 30.004 20.003 60.009 20.003h27.505v20.003c0 17.502 0 20.003 5 17.502 2.5 0 17.502-2.5 32.504-5l25.003-5 30.004 5c17.502 2.5 30.004 5 32.504 5 0 0 2.5-10.002 2.5-20.003v-17.502h40.005l110.016 130.018c60.009 70.009 112.516 130.018 115.016 135.018l7.5 5-7.5 12.502c-2.5 5-5 17.502-5 27.505l-2.5 20.003-102.514 110.016c-57.508 62.508-105.015 112.516-105.015 112.516 0 2.5 5 5 12.502 7.5 15.002 7.5 25.003 22.502 30.004 37.505l5 12.502 207.528-222.53 7.5 2.5c5 2.5 17.502 2.5 30.004 2.5 15.002 0 20.003-2.5 32.504-7.5 35.006-17.502 52.508-55.007 40.005-95.012-7.5-25.003-37.505-50.008-65.010-52.508l-10.002-2.5-100.013-117.516-100.013-115.016 135.018-2.5c130.018 0 132.518 0 142.521-5 12.502-7.5 22.502-17.502 27.505-30.004 5-5 5-15.002 5-42.507l2.5-35.006h-680.094v32.504zM408.209 406.551c-2.5 0-22.502 25.003-47.507 55.007-155.020 195.028-157.522 197.528-157.522 207.528-2.5 20.003 0 20.003 147.52 95.012 72.51 35.006 137.518 67.51 142.521 67.51 7.5 0 12.502 0 20.003-2.5l7.5-2.5 47.507 35.006c52.508 40.005 57.508 42.507 67.51 42.507 15.002 2.5 22.502-5 62.508-55.007 50.008-62.508 52.508-65.010 52.508-77.511 0-15.002-7.5-22.502-10.002-10.002-2.5 10.002-15.002 22.502-30.004 30.004-27.505 15.002-57.508 7.5-77.511-15.002-10.002-10.002-17.502-30.004-17.502-42.507 0-15.002 7.5-32.504 17.502-45.007l12.502-10.002-2.5-17.502c0-15.002-2.5-20.003-7.5-27.505-15.002-20.003-195.028-220.030-200.028-225.031-7.5-2.5-20.003-5-27.505-2.5zM655.741 696.593c-27.505 17.502-25.003 62.508 5 77.511 10.002 5 32.504 5 40.005 0 12.502-5 22.502-20.003 25.003-32.504 5-37.505-35.006-65.010-70.009-45.007z" horiz-adv-x="1246" />
<glyph unicode="&#xe617;" d="M470.89-2.635c-7.953 2.65-7.953 2.65-5.301 13.254 2.65 23.858 18.556 37.111 42.413 37.111s45.064-18.556 45.064-39.762c0-7.953-2.65-10.603-7.953-13.254-7.953-2.65-63.618-2.65-74.222 2.65zM621.985-5.286c-10.603 2.65-13.254 10.603-10.603 21.208 5.301 13.254 13.254 23.858 23.858 29.158 26.507 13.254 60.969-5.301 63.618-34.46 0-15.904-5.301-15.904-42.413-15.904-15.904 0-31.811 0-34.46 0zM229.667 60.983c-15.904 2.65-18.556 10.603-10.603 26.507 13.254 26.507 53.016 26.507 66.271 2.65 5.301-10.603 5.301-23.858 0-26.507s-45.064-2.65-55.668-2.65zM356.904 60.983c-2.65 0-5.301 2.65-10.603 2.65s-5.301 2.65-5.301 10.603c0 26.507 31.811 42.413 55.668 26.507 15.904-7.953 23.858-31.811 13.254-37.111-5.301-2.65-47.713-5.301-53.016-2.65zM762.477 60.983c-15.904 2.65-18.556 10.603-10.603 26.507 15.904 34.46 74.222 21.208 68.921-15.904 0-5.301-2.65-7.953-7.953-10.603-7.953 0-37.111 0-50.365 0zM889.717 60.983c-2.65 0-5.301 2.65-10.603 2.65s-5.301 2.65-5.301 10.603c0 34.46 53.016 47.713 68.921 13.254 5.301-10.603 5.301-21.208 0-23.858s-47.713-5.301-53.016-2.65zM468.239 74.236c-2.65 0-7.953 5.301-13.254 7.953l-5.301 7.953v132.539l-2.65 132.539-15.904 15.904c-34.46 39.762-39.762 74.222-13.254 121.935 7.953 15.904 37.111 50.365 63.618 71.572l15.904 13.254 13.254-5.301c37.111-18.556 103.381-18.556 140.492 0l13.254 5.301 26.507-21.208c29.158-26.507 47.713-47.713 60.969-74.222 7.953-13.254 7.953-18.556 7.953-39.762 0-29.158-5.301-42.413-31.811-71.572l-18.556-18.556v-129.888c0-90.127-2.65-132.539-5.301-137.842-2.65-7.953-18.556-13.254-45.064-13.254-29.158 0-42.413 2.65-50.365 13.254-5.301 5.301-5.301 7.953-5.301 23.858 0 23.858-7.953 31.811-21.208 31.811-10.603 0-15.904-7.953-15.904-34.46 0-15.904-2.65-21.208-5.301-26.507-5.301-5.301-7.953-5.301-47.713-5.301-21.208 0-42.413 0-45.064 0zM192.554 135.206l-5.301 7.953v222.666l-15.904 13.254c-18.556 23.858-23.858 34.46-23.858 58.316 0 18.556 0 23.858 7.953 39.762 10.603 18.556 42.413 53.016 66.271 71.572l13.254 10.603 18.556-7.953c39.762-18.556 98.077-18.556 127.24 2.65l10.603 7.953 10.603-7.953 7.953-7.953-10.603-13.254c-21.208-23.858-26.507-31.811-34.46-53.016-10.603-15.904-10.603-21.208-10.603-39.762s0-23.858 7.953-37.111c2.65-7.953 13.254-23.858 23.858-31.811l15.904-15.904v-227.967l-29.158 2.65c-23.858 0-29.158 0-34.46 5.301-5.301 7.953-5.301 10.603-5.301 23.858s-2.65 18.556-5.301 21.208c-13.254 13.254-23.858 5.301-26.507-21.208 0-29.158-2.65-31.811-55.668-31.811h-45.064l-7.953 7.953zM757.175 241.237v111.332l18.556 18.556c23.858 26.507 31.811 42.413 31.811 66.271 2.65 31.811-10.603 58.316-42.413 92.779l-15.904 15.904 10.603 7.953 7.953 5.301 18.556-7.953c37.111-18.556 95.428-18.556 127.24 2.65l10.603 7.953 10.603-7.953c21.208-13.254 60.969-58.316 71.572-76.875 7.953-13.254 7.953-18.556 7.953-37.111 0-26.507-5.301-37.111-29.158-60.969l-13.254-15.904v-222.666l-7.953-5.301c-7.953-7.953-7.953-7.953-45.064-5.301-39.762 0-39.762 0-47.713 5.301-5.301 7.953-5.301 10.603-5.301 23.858s-2.65 18.556-5.301 21.208c-7.953 7.953-10.603 7.953-18.556 2.65-5.301-2.65-5.301-7.953-7.953-23.858 0-29.158-2.65-31.811-45.064-31.811h-31.811v113.984zM280.034 567.286c-74.222 23.858-103.381 106.031-60.969 172.301 10.603 15.904 23.858 29.158 45.064 39.762 34.46 15.904 79.523 10.603 111.332-7.953 47.713-34.46 63.618-92.779 39.762-143.143-7.953-21.208-31.811-45.064-53.016-55.668-15.904-7.953-21.208-7.953-45.064-7.953-15.904 0-29.158 0-37.111 2.65zM812.842 567.286c-76.875 23.858-106.031 113.984-58.316 177.603 29.158 37.111 79.523 53.016 124.589 39.762 53.016-15.904 87.475-71.572 79.523-124.589-7.953-37.111-31.811-71.572-63.618-87.475-15.904-7.953-21.208-7.953-45.064-7.953-15.904 0-29.158 0-37.111 2.65zM547.761 591.143c-23.858 5.301-45.064 15.904-63.618 34.46s-26.507 37.111-34.46 60.969c-5.301 21.208-5.301 63.618 2.65 82.176 15.904 37.111 47.713 66.271 84.827 79.523 15.904 5.301 21.208 7.953 47.713 5.301 29.158 0 31.811 0 53.016-10.603 47.713-23.858 76.875-68.921 74.222-121.935 0-37.111-10.603-66.271-37.111-95.428-34.46-31.811-82.176-45.064-127.24-34.46z" horiz-adv-x="1125" />
<glyph unicode="&#xe618;" d="M339.481 37.688c-74.369 10.258-138.479 56.419-171.819 120.53-17.95 35.902-25.644 58.983-25.644 100.013-2.565 41.031 2.565 66.675 15.386 100.013 20.516 48.725 64.111 97.449 112.837 120.53 58.983 30.773 135.917 33.338 194.899 7.694 7.694-2.565 17.95-5.128 20.516-5.128s69.241 61.547 215.415 207.721c184.641 184.641 207.721 210.285 215.415 210.285s15.386-10.258 69.241-64.111c46.159-46.159 64.111-64.111 64.111-66.675 0-10.258-38.468-48.725-46.159-48.725-5.128 0-15.386 10.258-35.902 30.773-17.95 17.95-30.773 28.207-33.338 28.207-5.128 0-12.822-7.694-25.644-17.95-23.080-23.080-23.080-25.644 10.258-61.547 17.95-17.95 25.644-30.773 28.207-35.902 0-7.694-38.468-46.159-46.159-46.159-5.128 0-15.386 10.258-35.902 28.207-17.95 20.516-30.773 28.207-33.338 28.207-5.128 0-12.822-5.128-25.644-15.386-23.080-25.644-23.080-25.644 10.258-61.547 33.338-33.338 33.338-33.338 7.694-61.547-12.822-10.258-23.080-17.95-25.644-20.516-2.565 0-17.95 12.822-33.338 28.207-23.080 23.080-30.773 28.207-35.902 28.207s-20.516-12.822-84.627-76.933c-56.419-53.853-76.933-79.498-76.933-82.062s2.565-12.822 7.694-20.516c12.822-17.95 20.516-38.468 28.207-64.111 9.707-33.509 5.128-102.577-2.565-123.094-25.644-84.627-87.192-143.611-174.382-164.125-20.516-5.128-66.675-7.694-87.192-2.565zM336.917 124.879c15.386 7.694 30.773 23.080 38.468 38.468 10.258 20.516 10.258 48.725 2.565 66.675-12.822 28.207-43.597 46.159-71.805 46.159-25.644 0-41.031-5.128-58.983-20.516-64.111-64.111 7.694-169.254 89.755-130.788zM990.854 37.688c-2.565 2.565-25.644 28.207-48.725 58.983-33.338 38.468-43.597 53.853-48.725 51.29-2.565 0-10.258-12.822-25.644-41.031-23.080-41.031-28.207-48.725-33.338-43.597-2.565 2.565-15.386 66.675-30.773 143.611-23.080 120.53-25.644 141.045-23.080 143.611s20.516-5.128 133.352-51.29c71.805-30.773 133.352-56.419 133.352-58.983 7.694-7.694 0-10.258-46.159-23.080-46.159-15.386-53.853-17.95-48.725-25.644 2.565 0 20.516-25.644 43.597-53.853 20.516-25.644 41.031-51.29 41.031-56.419 12.822-30.773-17.95-58.983-46.159-43.597z" horiz-adv-x="1206" />
<glyph unicode="&#xe619;" d="M253.648 74.346c-15.789 2.631-31.577 13.157-42.103 26.315l-7.893 13.157v257.876c-2.631 255.244-2.631 257.876 5.262 268.398 2.631 5.262 7.893 15.789 13.157 21.050 18.42 15.789 26.315 15.789 142.094 15.789h105.254v52.626c-2.631 44.733 0 49.995 2.631 55.259 5.262 2.631 21.050 5.262 163.145 2.631 147.358 0 155.251 0 160.513-2.631 2.631-5.262 5.262-13.157 5.262-55.259v-52.626l102.625 2.631c121.043 0 123.675-2.631 142.094-21.050 7.893-7.893 15.789-18.42 15.789-23.683 2.631-7.893 2.631-71.046 2.631-263.137v-249.98l-5.262-13.157c-5.262-13.157-18.42-26.315-31.577-31.577-10.527-5.262-47.365-5.262-386.811-5.262-210.51 0-381.547 0-386.811 2.631zM666.775 287.487v52.626h107.886v68.415h-107.886v102.625h-65.785v-105.254h-105.254v-65.785h105.254v-105.254h65.785v52.626zM779.922 716.398c0 36.839-2.631 42.103-5.262 44.733-5.262 5.262-10.527 5.262-139.461 5.262-131.569 0-136.83 0-139.461-5.262-5.262-2.631-5.262-7.893-5.262-44.733v-39.47h289.452v39.47zM303.646 684.822c0 2.631 5.262 5.262 10.527 5.262 2.631 0 7.893 5.262 10.527 7.893 5.262 5.262 5.262 5.262 36.839 5.262 34.209 0 44.733 0 44.733-7.893 0-2.631 0-5.262 5.262-5.262 2.631 0 7.893 0 10.527-2.631 5.262-2.631-2.631-2.631-57.891-2.631-34.209 0-60.521 0-60.521 0zM845.706 687.456c2.631 2.631 7.893 2.631 10.527 2.631 5.262 0 7.893 2.631 7.893 5.262 0 7.893 7.893 7.893 42.103 7.893 31.577 0 42.103 0 42.103-7.893 0-2.631 0-5.262 5.262-5.262 2.631 0 7.893 0 10.527-2.631 5.262-2.631-2.631-2.631-57.891-2.631-57.891 0-65.785 0-60.521 2.631z" horiz-adv-x="1197" />
<glyph unicode="&#xe61e;" d="M444.569 49.868c-3.124 9.368-6.243 28.101-6.243 43.717-6.243 49.959-12.491 53.085-62.454 46.84-49.959-9.368-78.063-6.243-96.8 3.124-9.368 3.124-18.735 9.368-21.859 15.614-9.368 12.491-9.368 34.349-3.124 59.33 9.368 31.226 9.368 34.349-3.124 43.717-15.614 12.491-15.614 15.614-6.243 24.982l9.368 9.368-9.368 6.243c-12.491 3.124-15.614 9.368-9.368 28.101 6.243 21.859 3.124 28.101-24.982 40.593s-28.101 18.735-21.859 37.471c6.243 12.491 56.209 90.555 68.698 109.29l9.368 12.491-6.243 12.491c-9.368 15.614-9.368 31.226 0 74.944 34.349 131.15 87.431 202.971 184.233 249.811 103.047 49.959 252.931 46.84 359.1-3.124 62.454-31.226 106.169-78.063 137.396-140.519 24.982-49.959 31.226-78.063 31.226-140.519 0-40.593-3.124-49.959-9.368-78.063-15.614-56.209-37.471-96.8-93.679-165.499-21.859-28.101-31.226-46.84-37.471-81.19-6.243-37.471-6.243-103.047 0-134.273 6.243-24.982 18.735-65.575 28.101-78.063 3.124-3.124 3.124-9.368 3.124-12.491 0 0-93.679-3.124-209.214-3.124h-206.091l-3.124 18.735zM672.519 359.006c3.124 6.243 6.243 18.735 9.368 28.101l3.124 15.614 12.491-9.368c24.982-21.859 46.84-24.982 68.698-9.368 12.491 9.368 31.226 37.471 31.226 49.959 0 3.124 0 6.243 3.124 3.124 18.735-9.368 53.085 0 65.575 15.614 9.368 9.368 6.243 31.226-3.124 49.959l-6.243 15.614 6.243 3.124c21.859 3.124 40.593 34.349 43.717 68.698 3.124 15.614 0 21.859-6.243 34.349-3.124 9.368-9.368 18.735-12.491 21.859s-3.124 6.243 0 12.491c0 3.124 0 6.243-3.124 12.491-6.243 6.243-6.243 12.491-6.243 18.735 3.124 15.614-6.243 31.226-18.735 37.471-9.368 3.124-9.368 6.243-12.491 18.735-3.124 21.859-18.735 37.471-40.593 37.471-9.368 0-15.614 3.124-21.859 9.368-12.491 9.368-24.982 9.368-31.226 6.243-3.124-3.124-6.243 0-12.491 6.243-3.124 6.243-12.491 12.491-18.735 15.614-9.368 6.243-12.491 6.243-28.101 3.124-12.491-6.243-15.614-6.243-24.982 3.124-24.982 15.614-43.717 15.614-62.454 0-12.491-9.368-12.491-9.368-31.226-3.124s-34.349 3.124-49.959-9.368c-6.243-6.243-9.368-12.491-12.491-12.491 0-3.124-3.124-3.124-15.614 0-21.859 6.243-37.471 3.124-56.209-6.243-15.614-9.368-24.982-21.859-28.101-34.349 0-3.124-6.243-9.368-12.491-12.491s-9.368-9.368-12.491-15.614-6.243-12.491-9.368-15.614c-18.735-9.368-28.101-18.735-34.349-31.226-15.614-24.982-6.243-62.454 18.735-78.063 6.243-6.243 9.368-9.368 12.491-24.982 3.124-34.349 31.226-62.454 68.698-62.454 15.614-3.124 21.859 0 37.471 6.243l15.614 9.368v-15.614c-3.124-21.859 9.368-46.84 31.226-59.33 15.614-9.368 40.593-12.491 59.33-9.368 6.243 3.124 9.368 3.124 15.614-3.124 12.491-9.368 18.735-21.859 28.101-59.33 15.614-40.593 15.614-43.717 28.101-43.717 9.368 0 12.491 3.124 12.491 12.491zM622.557 536.994v21.859h46.84v-46.84h-46.84zM625.68 586.955c0 21.859 6.243 34.349 24.982 53.085 21.859 21.859 24.982 28.101 21.859 43.717-6.243 18.735-31.226 21.859-46.84 9.368-3.124-3.124-6.243-12.491-9.368-18.735l-3.124-15.614h-21.859c-21.859 0-21.859 0-15.614 28.101 12.491 43.717 65.575 62.454 112.414 40.593 21.859-12.491 31.226-28.101 31.226-53.085s-6.243-34.349-31.226-53.085c-15.614-12.491-18.735-18.735-21.859-28.101l-3.124-15.614h-18.735c-18.735 0-18.735 3.124-18.735 9.368z" horiz-adv-x="1130" />
</font>
</defs>
</svg>
